<svg width="120" height="120" viewBox="0 0 120 120" fill="none" xmlns="http://www.w3.org/2000/svg">
<path d="M55 38C55 38 50 26 60 26C70 26 65 38 65 38H55Z" fill="#0A5C7A"/>
<path d="M60 93C79.33 93 95 80.464 95 65C95 49.536 79.33 37 60 37C40.67 37 25 49.536 25 65C25 80.464 40.67 93 60 93Z" fill="white"/>
<path d="M60.7666 64C60.7666 64 62.5542 73.7368 72.291 71.9492" stroke="#0A5C7A" stroke-width="2.5" stroke-linecap="round"/>
<path d="M75 66C78.3137 66 81 63.3137 81 60C81 56.6863 78.3137 54 75 54C71.6863 54 69 56.6863 69 60C69 63.3137 71.6863 66 75 66Z" fill="white"/>
<path d="M77 63C78.6569 63 80 61.6569 80 60C80 58.3431 78.6569 57 77 57C75.3431 57 74 58.3431 74 60C74 61.6569 75.3431 63 77 63Z" fill="#0B2A46"/>
<path d="M100 58H96C94.8954 58 94 58.8357 94 59.8667V70.1333C94 71.1643 94.8954 72 96 72H100C101.105 72 102 71.1643 102 70.1333V59.8667C102 58.8357 101.105 58 100 58Z" fill="#0A5C7A"/>
<path d="M25 65.0001C25 65.0001 15 60.0001 10 65.0001C15 70.0001 25 65.0001 25 65.0001Z" fill="white"/>
<path d="M30 72C36.6274 72 42 68.866 42 65C42 61.134 36.6274 58 30 58C23.3726 58 18 61.134 18 65C18 68.866 23.3726 72 30 72Z" fill="#0A5C7A"/>
<path d="M101 45C103.209 45 105 43.2091 105 41C105 38.7909 103.209 37 101 37C98.7909 37 97 38.7909 97 41C97 43.2091 98.7909 45 101 45Z" fill="#0B2A46"/>
<path d="M101 32C102.657 32 104 30.6569 104 29C104 27.3431 102.657 26 101 26C99.3431 26 98 27.3431 98 29C98 30.6569 99.3431 32 101 32Z" fill="#0B2A46"/>
</svg>
